<svg xmlns="http://www.w3.org/2000/svg" width="368" height="314" viewBox="0 0 368 314" version="1.1"><path d="M 40.698 108.444 C 33.972 110.843, 29.189 114.915, 26.399 120.616 C 19.412 134.897, 26.531 152.104, 41.042 156.011 L 45 157.077 45 175.039 L 45 193 51.019 193 L 57.038 193 56.769 170.750 L 56.500 148.500 51 147.907 C 43.471 147.095, 39.437 144.777, 36.900 139.805 C 34.049 134.215, 34.596 126.147, 38.083 122.360 C 43.859 116.090, 52.372 114.605, 63.161 117.987 C 66.647 119.080, 69.862 119.980, 70.305 119.987 C 70.747 119.994, 70.972 117.862, 70.805 115.250 C 70.501 110.520, 70.479 110.493, 65.500 108.794 C 59.407 106.714, 46.074 106.526, 40.698 108.444 M 300.500 108.794 C 295.521 110.493, 295.499 110.520, 295.195 115.250 C 295.028 117.862, 295.253 119.994, 295.695 119.987 C 296.138 119.980, 299.353 119.080, 302.839 117.987 C 313.628 114.605, 322.141 116.090, 327.917 122.360 C 331.404 126.147, 331.951 134.215, 329.100 139.805 C 326.563 144.777, 322.529 147.095, 315 147.907 L 309.500 148.500 309.231 170.750 L 308.962 193 314.981 193 L 321 193 321 175.039 L 321 157.077 324.958 156.011 C 339.479 152.101, 346.599 134.920, 339.614 120.644 C 336.811 114.914, 332.041 110.848, 325.302 108.444 C 319.926 106.526, 306.593 106.714, 300.500 108.794 M 107.274 136.093 C 96.149 141.600, 95.409 157.642, 105.952 164.747 C 109.866 167.385, 117.208 167.776, 122.364 165.621 C 131.879 161.646, 134.597 147.498, 127.332 139.767 C 121.742 133.819, 114.536 132.499, 107.274 136.093 M 243.274 136.093 C 232.149 141.600, 231.409 157.642, 241.952 164.747 C 245.866 167.385, 253.208 167.776, 258.364 165.621 C 267.879 161.646, 270.597 147.498, 263.332 139.767 C 257.742 133.819, 250.536 132.499, 243.274 136.093 M 174.962 145.250 C 169.056 148.228, 166.764 152.616, 167.258 160 C 167.701 166.617, 169.885 171.452, 175.114 177.393 L 179.024 181.834 175.473 184.761 C 170.342 188.991, 165.469 190.294, 161.826 188.410 C 158.554 186.718, 157 187.241, 157 190.033 C 157 192.870, 162.403 195.328, 166.871 194.525 C 171.232 193.740, 177.657 190.595, 180.757 187.727 L 183.013 185.639 185.757 188.205 C 191.902 193.954, 200.616 196.284, 205.849 193.578 C 209.044 191.926, 210.132 188.571, 207.750 187.721 C 207.063 187.475, 205.316 187.872, 203.869 188.601 C 199.838 190.634, 196.383 189.350, 187.141 182.386 C 186.944 182.238, 188.581 179.953, 190.779 177.308 C 196.948 169.886, 198.428 166.362, 198.466 159 C 198.507 151.124, 196.115 147.063, 189.993 144.614 C 184.481 142.409, 180.241 142.588, 174.962 145.250" stroke="none" fill="#282828" fill-rule="evenodd"/></svg>