<?xml version="1.0" encoding="UTF-8"?>
<svg xmlns="http://www.w3.org/2000/svg" version="1.1" viewBox="0 0 751.3 751.3">
<path fill="currentColor" d="m336 650.77c-137.08-15.964-246.31-132.32-250.43-266.77l-1.2141-39.652-13.509-7.0459c-41.763-21.782-70.838-64.65-70.845-104.45-0.0073085-43.658 29.755-89.382 70.906-108.93 27.547-13.087 78.529-12.691 104.39 0.81223 10.33 5.393 21.927 12.566 25.771 15.941 6.2127 5.4545 8.9928 4.9695 25.043-4.3686 30.879-17.965 73.975-31.827 112.52-36.194 65.652-7.4371 134.51 5.9237 186.54 36.194 16.051 9.3381 18.831 9.823 25.043 4.3686 3.8437-3.3746 15.441-10.548 25.771-15.941 25.866-13.503 76.847-13.9 104.39-0.81223 41.296 19.619 70.91 65.269 70.91 109.31 0 38.766-30.976 83.874-72.007 104.86-12.083 6.1797-12.259 6.7748-13.51 45.913-2.2548 70.513-30.857 134.08-83.674 185.95-63.666 62.531-152.55 91.719-246.11 80.823zm106.43-56.807c63.786-18.137 118.27-61.258 146.64-116.05 22.694-43.838 31.072-88.208 24.465-129.57-5.1715-32.372-0.25349-44.819 19.615-49.642 42.126-10.226 64.642-34.061 65.169-68.985 0.24037-15.934-2.1319-23.442-11.136-35.247-29.404-38.55-80.478-40.544-115.41-4.5058-17.564 18.122-29.457 18.537-54.211 1.8918-44.396-29.852-86.981-42.651-141.91-42.651s-97.517 12.798-141.91 42.651c-24.754 16.645-36.647 16.23-54.211-1.8918-34.93-36.038-86.005-34.044-115.41 4.5058-9.0045 11.806-11.377 19.314-11.136 35.247 0.52685 34.924 23.043 58.759 65.169 68.985 19.804 4.8073 24.782 17.296 19.665 49.328-7.1083 44.496 2.0727 89.592 27.555 135.35 35.234 63.266 104.34 108.27 183.15 119.27 20.396 2.8466 69.254-1.6701 93.913-8.6817zm-141.59-112.25c-14.017-11.794-16.353-22.823-6.5564-30.954 5.2121-4.3256 7.7892-3.3049 15.09 5.977 11.485 14.601 22.515 12.686 38.093-6.613l12.321-15.265-17.48-24.786c-27.645-39.201-24.451-69.661 9.1249-87.024 16.224-8.3899 44.888-7.285 59.414 2.2903 30.675 20.221 29.955 51.949-2.0971 92.418l-12.932 16.328 13.223 16.696c15.397 19.44 22.58 20.618 37.655 6.1746l10.982-10.521 7.9712 8.8081c7.916 8.7471 7.8637 8.9066-7.5615 23.043-22.53 20.647-40.264 19.826-63.007-2.9174l-17.152-17.152-10.531 12.391c-21.03 24.745-45.498 28.829-66.558 11.108z"/>
<style>svg{color:#000;}@media(prefers-color-scheme:dark){svg{color:#fff;}}</style>
</svg>
